<svg width="100" height="100" viewBox="0 0 100 100" fill="none" xmlns="http://www.w3.org/2000/svg">
<rect width="100" height="100" rx="28" fill="#D55E1E"/>
<path d="M12.4091 61.5V59.4545L20.0909 51.0455C20.9924 50.0606 21.7348 49.2045 22.3182 48.4773C22.9015 47.7424 23.3333 47.053 23.6136 46.4091C23.9015 45.7576 24.0455 45.0758 24.0455 44.3636C24.0455 43.5455 23.8485 42.8371 23.4545 42.2386C23.0682 41.6402 22.5379 41.178 21.8636 40.8523C21.1894 40.5265 20.4318 40.3636 19.5909 40.3636C18.697 40.3636 17.9167 40.5492 17.25 40.9205C16.5909 41.2841 16.0795 41.7955 15.7159 42.4545C15.3598 43.1136 15.1818 43.8864 15.1818 44.7727H12.5C12.5 43.4091 12.8144 42.2121 13.4432 41.1818C14.072 40.1515 14.928 39.3485 16.0114 38.7727C17.1023 38.197 18.3258 37.9091 19.6818 37.9091C21.0455 37.9091 22.2538 38.197 23.3068 38.7727C24.3598 39.3485 25.1856 40.125 25.7841 41.1023C26.3826 42.0795 26.6818 43.1667 26.6818 44.3636C26.6818 45.2197 26.5265 46.0568 26.2159 46.875C25.9129 47.6856 25.3826 48.5909 24.625 49.5909C23.875 50.5833 22.8333 51.7955 21.5 53.2273L16.2727 58.8182V59H27.0909V61.5H12.4091ZM39.375 61.8182C37.6629 61.8182 36.2045 61.3523 35 60.4205C33.7955 59.4811 32.875 58.1212 32.2386 56.3409C31.6023 54.553 31.2841 52.3939 31.2841 49.8636C31.2841 47.3485 31.6023 45.2008 32.2386 43.4205C32.8826 41.6326 33.8068 40.2689 35.0114 39.3295C36.2235 38.3826 37.678 37.9091 39.375 37.9091C41.072 37.9091 42.5227 38.3826 43.7273 39.3295C44.9394 40.2689 45.8636 41.6326 46.5 43.4205C47.1439 45.2008 47.4659 47.3485 47.4659 49.8636C47.4659 52.3939 47.1477 54.553 46.5114 56.3409C45.875 58.1212 44.9545 59.4811 43.75 60.4205C42.5455 61.3523 41.0871 61.8182 39.375 61.8182ZM39.375 59.3182C41.072 59.3182 42.3902 58.5 43.3295 56.8636C44.2689 55.2273 44.7386 52.8939 44.7386 49.8636C44.7386 47.8485 44.5227 46.1326 44.0909 44.7159C43.6667 43.2992 43.053 42.2197 42.25 41.4773C41.4545 40.7348 40.4962 40.3636 39.375 40.3636C37.6932 40.3636 36.3788 41.1932 35.4318 42.8523C34.4848 44.5038 34.0114 46.8409 34.0114 49.8636C34.0114 51.8788 34.2235 53.5909 34.6477 55C35.072 56.4091 35.6818 57.4811 36.4773 58.2159C37.2803 58.9508 38.2462 59.3182 39.375 59.3182ZM51.2386 56.7273V54.4091L61.4659 38.2273H63.1477V41.8182H62.0114L54.2841 54.0455V54.2273H68.0568V56.7273H51.2386ZM62.1932 61.5V56.0227V54.9432V38.2273H64.875V61.5H62.1932ZM79.7699 61.8182C78.2093 61.8182 76.8305 61.5417 75.6335 60.9886C74.4441 60.428 73.5161 59.6591 72.8494 58.6818C72.1828 57.697 71.8532 56.5758 71.8608 55.3182C71.8532 54.3333 72.0464 53.4242 72.4403 52.5909C72.8343 51.75 73.3722 51.0492 74.054 50.4886C74.7434 49.9205 75.5123 49.5606 76.3608 49.4091V49.2727C75.2472 48.9848 74.3608 48.3598 73.7017 47.3977C73.0426 46.428 72.7169 45.3258 72.7244 44.0909C72.7169 42.9091 73.0161 41.8523 73.6222 40.9205C74.2282 39.9886 75.0616 39.2538 76.1222 38.7159C77.1903 38.178 78.4063 37.9091 79.7699 37.9091C81.1184 37.9091 82.3229 38.178 83.3835 38.7159C84.4441 39.2538 85.2775 39.9886 85.8835 40.9205C86.4972 41.8523 86.8078 42.9091 86.8153 44.0909C86.8078 45.3258 86.4706 46.428 85.804 47.3977C85.1449 48.3598 84.2699 48.9848 83.179 49.2727V49.4091C84.0199 49.5606 84.7775 49.9205 85.4517 50.4886C86.1259 51.0492 86.6638 51.75 87.0653 52.5909C87.4669 53.4242 87.6714 54.3333 87.679 55.3182C87.6714 56.5758 87.3305 57.697 86.6562 58.6818C85.9896 59.6591 85.0616 60.428 83.8722 60.9886C82.6903 61.5417 81.3229 61.8182 79.7699 61.8182ZM79.7699 59.3182C80.8229 59.3182 81.732 59.1477 82.4972 58.8068C83.2623 58.4659 83.8532 57.9848 84.2699 57.3636C84.6866 56.7424 84.8987 56.0152 84.9062 55.1818C84.8987 54.303 84.6714 53.5265 84.2244 52.8523C83.7775 52.178 83.1676 51.6477 82.3949 51.2614C81.6297 50.875 80.7547 50.6818 79.7699 50.6818C78.7775 50.6818 77.8911 50.875 77.1108 51.2614C76.3381 51.6477 75.7282 52.178 75.2812 52.8523C74.8419 53.5265 74.6259 54.303 74.6335 55.1818C74.6259 56.0152 74.8267 56.7424 75.2358 57.3636C75.6525 57.9848 76.2472 58.4659 77.0199 58.8068C77.7926 59.1477 78.7093 59.3182 79.7699 59.3182ZM79.7699 48.2727C80.6032 48.2727 81.3419 48.1061 81.9858 47.7727C82.6373 47.4394 83.1487 46.9735 83.5199 46.375C83.8911 45.7765 84.0805 45.0758 84.0881 44.2727C84.0805 43.4848 83.8949 42.7992 83.5312 42.2159C83.1676 41.625 82.6638 41.1705 82.0199 40.8523C81.3759 40.5265 80.6259 40.3636 79.7699 40.3636C78.8987 40.3636 78.1373 40.5265 77.4858 40.8523C76.8343 41.1705 76.3305 41.625 75.9744 42.2159C75.6184 42.7992 75.4441 43.4848 75.4517 44.2727C75.4441 45.0758 75.6222 45.7765 75.9858 46.375C76.357 46.9735 76.8684 47.4394 77.5199 47.7727C78.1714 48.1061 78.9214 48.2727 79.7699 48.2727Z" fill="white"/>
</svg>
